# xmcd
# 
# Track frame offsets:
#     150
#     11807
#     23232
#     36705
#     48317
#     71190
#     83682
#     97325
#     109875
#     126282
#     141290
# 
# Disc length: 2021
# 
# Revision: 4
# Processed by: cddbd v1.5.2PL0 Copyright (c) Steve Scherf et al.
# Submitted via: fre:ac v1.0.17
# 
DISCID=a507e30b
DTITLE=Various Artist - Best of the Blues - Volume 1
DYEAR=0
DGENRE=
TTITLE0=John Lee Hooker - Hard Headed Woman
TTITLE1=John Lee Hooker - Boom Boom
TTITLE2=Mojo Hand - Lightning Hopkins
TTITLE3=Billie Holiday - Nice Work If You Can Get It
TTITLE4=B.B. King - The Thrill Is Gone
TTITLE5=Ray Charles - C.C. Rider
TTITLE6=Ray Charles - I'm Gonna Drown Myself
TTITLE7=John Lee Hooker - Hobo Blues
TTITLE8=B.B. King - How Blue Can You Get
TTITLE9=Ray Charles - I'm Wonderin' and Wonderin'
TTITLE10=Leadbelly - Blue Tail Fly
EXTD=
EXTT0=
EXTT1=
EXTT2=
EXTT3=
EXTT4=
EXTT5=
EXTT6=
EXTT7=
EXTT8=
EXTT9=
EXTT10=
PLAYORDER=
